<svg xmlns="http://www.w3.org/2000/svg"
     viewBox="0 0 71.8 71.8"
     preserveAspectRatio="xMidYMid meet"
>
    <defs>
        <style>
            .cls-insta{fill:url(#linear-gradient-insta);}
        </style>
        <linearGradient id="linear-gradient-insta"
                        x1="0.23"
                        y1="72.01"
                        x2="70.89"
                        y2="0.68"
                        gradientUnits="userSpaceOnUse">
            <stop offset="0" stop-color="#fbaf1e"/>
            <stop offset="0.48" stop-color="#ef0005"/>
            <stop offset="1" stop-color="#c2009d"/>
        </linearGradient>
    </defs>
    <path class="cls-insta"
          d="M46.6,19.1H25.2A6.2,6.2,0,0,0,19,25.3V46.7a6.2,6.2,0,0,0,6.19,6.2H46.6a6.21,6.21,0,0,0,6.2-6.2V25.3a6.21,6.21,0,0,0-6.2-6.2Zm-10.7,28A11.12,11.12,0,1,1,47,36,11.13,11.13,0,0,1,35.9,47.12ZM47.39,27.17A2.63,2.63,0,1,1,50,24.54a2.63,2.63,0,0,1-2.63,2.63Zm0,0"/>
    <path class="cls-insta" d="M35.9,29.58A6.42,6.42,0,1,0,42.33,36a6.43,6.43,0,0,0-6.43-6.42Zm0,0"/>
    <path class="cls-insta"
          d="M35.9,0A35.9,35.9,0,1,0,71.8,35.9,35.9,35.9,0,0,0,35.9,0ZM57.5,46.7A10.91,10.91,0,0,1,46.6,57.6H25.2A10.91,10.91,0,0,1,14.3,46.7V25.3A10.91,10.91,0,0,1,25.2,14.4H46.6A10.91,10.91,0,0,1,57.5,25.3Zm0,0"/>
</svg>
